# xmcd
#
# Track frame offsets: 
#        150
#        15975
#        34747
#        73982
#
# Disc length: 1204 seconds
#
# Revision: 6
# Processed by: cddbd v1.5.2PL0 Copyright (c) Steve Scherf et al.
# Submitted via: ExactAudioCopy v1.3
#
DISCID=2c04b204
DTITLE=Shania Twain - When
DYEAR=1998
DGENRE=Country
TTITLE0=When (International Radio Edit)
TTITLE1=You're Still The One (Soul Solution Radio Edit)
TTITLE2=You're Still The One (Soul Solution Extended Club Mix)
TTITLE3=Don't Be Stupid [You Know I Love You] (International LP Versio
TTITLE3=n)
EXTD=
EXTT0=
EXTT1=
EXTT2=
EXTT3=
PLAYORDER=
